<mxfile host="app.diagrams.net" modified="2022-12-09T06:41:45.521Z" agent="5.0 (X11)" version="20.6.2" etag="uTRR42d5N8yZz4TFe9AV" type="github">
  <diagram id="VNQ5PzkKBtCRiGyfv3ta" name="Page-1">
    <mxGraphModel dx="1673" dy="896" grid="1" gridSize="10" guides="1" tooltips="1" connect="1" arrows="1" fold="1" page="1" pageScale="1" pageWidth="850" pageHeight="1100" math="0" shadow="0">
      <root>
        <mxCell id="0" />
        <mxCell id="1" parent="0" />
        <mxCell id="8Z6I1ifUidSe4iL7Zp6g-43" style="edgeStyle=orthogonalEdgeStyle;curved=1;orthogonalLoop=1;jettySize=auto;html=1;exitX=0.5;exitY=1;exitDx=0;exitDy=0;entryX=0.5;entryY=0;entryDx=0;entryDy=0;" edge="1" parent="1" source="8Z6I1ifUidSe4iL7Zp6g-10" target="8Z6I1ifUidSe4iL7Zp6g-11">
          <mxGeometry relative="1" as="geometry" />
        </mxCell>
        <mxCell id="8Z6I1ifUidSe4iL7Zp6g-10" value="&lt;div&gt;PortalSehat&lt;/div&gt;" style="rounded=1;whiteSpace=wrap;html=1;" vertex="1" parent="1">
          <mxGeometry x="365.5" y="50" width="120" height="60" as="geometry" />
        </mxCell>
        <mxCell id="8Z6I1ifUidSe4iL7Zp6g-44" style="edgeStyle=orthogonalEdgeStyle;curved=1;orthogonalLoop=1;jettySize=auto;html=1;exitX=0.5;exitY=1;exitDx=0;exitDy=0;" edge="1" parent="1" source="8Z6I1ifUidSe4iL7Zp6g-11" target="8Z6I1ifUidSe4iL7Zp6g-14">
          <mxGeometry relative="1" as="geometry" />
        </mxCell>
        <mxCell id="8Z6I1ifUidSe4iL7Zp6g-46" style="edgeStyle=orthogonalEdgeStyle;curved=1;orthogonalLoop=1;jettySize=auto;html=1;exitX=0;exitY=0.5;exitDx=0;exitDy=0;entryX=0;entryY=0.5;entryDx=0;entryDy=0;" edge="1" parent="1" source="8Z6I1ifUidSe4iL7Zp6g-11" target="8Z6I1ifUidSe4iL7Zp6g-10">
          <mxGeometry relative="1" as="geometry">
            <Array as="points">
              <mxPoint x="280" y="210" />
              <mxPoint x="280" y="80" />
            </Array>
          </mxGeometry>
        </mxCell>
        <mxCell id="8Z6I1ifUidSe4iL7Zp6g-11" value="&lt;div&gt;Backend&lt;/div&gt;&lt;div&gt;PortalSehat&lt;br&gt;&lt;/div&gt;" style="rounded=1;whiteSpace=wrap;html=1;" vertex="1" parent="1">
          <mxGeometry x="365" y="180" width="120" height="60" as="geometry" />
        </mxCell>
        <mxCell id="8Z6I1ifUidSe4iL7Zp6g-27" style="edgeStyle=orthogonalEdgeStyle;curved=1;orthogonalLoop=1;jettySize=auto;html=1;exitX=0.5;exitY=1;exitDx=0;exitDy=0;" edge="1" parent="1" source="8Z6I1ifUidSe4iL7Zp6g-14" target="8Z6I1ifUidSe4iL7Zp6g-26">
          <mxGeometry relative="1" as="geometry" />
        </mxCell>
        <mxCell id="8Z6I1ifUidSe4iL7Zp6g-45" style="edgeStyle=orthogonalEdgeStyle;curved=1;orthogonalLoop=1;jettySize=auto;html=1;exitX=1;exitY=0.5;exitDx=0;exitDy=0;entryX=1;entryY=0.5;entryDx=0;entryDy=0;" edge="1" parent="1" source="8Z6I1ifUidSe4iL7Zp6g-14" target="8Z6I1ifUidSe4iL7Zp6g-11">
          <mxGeometry relative="1" as="geometry">
            <Array as="points">
              <mxPoint x="580" y="350" />
              <mxPoint x="580" y="210" />
            </Array>
          </mxGeometry>
        </mxCell>
        <mxCell id="8Z6I1ifUidSe4iL7Zp6g-14" value="TeramedikCE" style="rounded=1;whiteSpace=wrap;html=1;" vertex="1" parent="1">
          <mxGeometry x="365" y="320" width="120" height="60" as="geometry" />
        </mxCell>
        <mxCell id="8Z6I1ifUidSe4iL7Zp6g-29" style="edgeStyle=orthogonalEdgeStyle;curved=1;orthogonalLoop=1;jettySize=auto;html=1;exitX=0.5;exitY=1;exitDx=0;exitDy=0;entryX=0.5;entryY=0;entryDx=0;entryDy=0;" edge="1" parent="1" source="8Z6I1ifUidSe4iL7Zp6g-26" target="8Z6I1ifUidSe4iL7Zp6g-28">
          <mxGeometry relative="1" as="geometry" />
        </mxCell>
        <mxCell id="8Z6I1ifUidSe4iL7Zp6g-26" value="/api/mobile/appointment" style="rounded=1;whiteSpace=wrap;html=1;" vertex="1" parent="1">
          <mxGeometry x="348" y="420" width="155" height="60" as="geometry" />
        </mxCell>
        <mxCell id="8Z6I1ifUidSe4iL7Zp6g-33" style="edgeStyle=orthogonalEdgeStyle;curved=1;orthogonalLoop=1;jettySize=auto;html=1;exitX=0.5;exitY=1;exitDx=0;exitDy=0;entryX=0.5;entryY=0;entryDx=0;entryDy=0;" edge="1" parent="1" source="8Z6I1ifUidSe4iL7Zp6g-28" target="8Z6I1ifUidSe4iL7Zp6g-32">
          <mxGeometry relative="1" as="geometry" />
        </mxCell>
        <mxCell id="8Z6I1ifUidSe4iL7Zp6g-35" style="edgeStyle=orthogonalEdgeStyle;curved=1;orthogonalLoop=1;jettySize=auto;html=1;" edge="1" parent="1" source="8Z6I1ifUidSe4iL7Zp6g-28" target="8Z6I1ifUidSe4iL7Zp6g-34">
          <mxGeometry relative="1" as="geometry" />
        </mxCell>
        <mxCell id="8Z6I1ifUidSe4iL7Zp6g-47" value="Tidak" style="edgeLabel;html=1;align=center;verticalAlign=middle;resizable=0;points=[];" vertex="1" connectable="0" parent="8Z6I1ifUidSe4iL7Zp6g-35">
          <mxGeometry x="-0.2639" y="1" relative="1" as="geometry">
            <mxPoint x="15" y="1" as="offset" />
          </mxGeometry>
        </mxCell>
        <mxCell id="8Z6I1ifUidSe4iL7Zp6g-28" value="RM&lt;br&gt;Terdaftar?" style="rhombus;whiteSpace=wrap;html=1;" vertex="1" parent="1">
          <mxGeometry x="385.5" y="520" width="80" height="80" as="geometry" />
        </mxCell>
        <mxCell id="8Z6I1ifUidSe4iL7Zp6g-65" style="edgeStyle=orthogonalEdgeStyle;curved=1;orthogonalLoop=1;jettySize=auto;html=1;" edge="1" parent="1" source="8Z6I1ifUidSe4iL7Zp6g-32" target="8Z6I1ifUidSe4iL7Zp6g-64">
          <mxGeometry relative="1" as="geometry" />
        </mxCell>
        <mxCell id="8Z6I1ifUidSe4iL7Zp6g-32" value="Buat Perjanjian Pasien" style="rounded=1;whiteSpace=wrap;html=1;" vertex="1" parent="1">
          <mxGeometry x="365.5" y="670" width="120" height="60" as="geometry" />
        </mxCell>
        <mxCell id="8Z6I1ifUidSe4iL7Zp6g-53" style="edgeStyle=orthogonalEdgeStyle;curved=1;orthogonalLoop=1;jettySize=auto;html=1;exitX=0.5;exitY=1;exitDx=0;exitDy=0;entryX=1;entryY=0.5;entryDx=0;entryDy=0;" edge="1" parent="1" source="8Z6I1ifUidSe4iL7Zp6g-34" target="8Z6I1ifUidSe4iL7Zp6g-32">
          <mxGeometry relative="1" as="geometry" />
        </mxCell>
        <mxCell id="8Z6I1ifUidSe4iL7Zp6g-56" style="edgeStyle=orthogonalEdgeStyle;curved=1;orthogonalLoop=1;jettySize=auto;html=1;exitX=0.5;exitY=1;exitDx=0;exitDy=0;entryX=0.5;entryY=0;entryDx=0;entryDy=0;" edge="1" parent="1" source="8Z6I1ifUidSe4iL7Zp6g-34" target="8Z6I1ifUidSe4iL7Zp6g-50">
          <mxGeometry relative="1" as="geometry" />
        </mxCell>
        <mxCell id="8Z6I1ifUidSe4iL7Zp6g-34" value="&lt;div&gt;Verifikasi&lt;/div&gt;&lt;div&gt;Pasien Baru&lt;/div&gt;" style="rounded=1;whiteSpace=wrap;html=1;" vertex="1" parent="1">
          <mxGeometry x="600" y="530" width="120" height="60" as="geometry" />
        </mxCell>
        <mxCell id="8Z6I1ifUidSe4iL7Zp6g-48" value="Ya" style="edgeLabel;html=1;align=center;verticalAlign=middle;resizable=0;points=[];" vertex="1" connectable="0" parent="1">
          <mxGeometry x="462" y="610" as="geometry">
            <mxPoint x="-37" y="15" as="offset" />
          </mxGeometry>
        </mxCell>
        <mxCell id="8Z6I1ifUidSe4iL7Zp6g-63" style="edgeStyle=orthogonalEdgeStyle;curved=1;orthogonalLoop=1;jettySize=auto;html=1;exitX=0.5;exitY=1;exitDx=0;exitDy=0;entryX=0.5;entryY=0;entryDx=0;entryDy=0;" edge="1" parent="1" source="8Z6I1ifUidSe4iL7Zp6g-50" target="8Z6I1ifUidSe4iL7Zp6g-61">
          <mxGeometry relative="1" as="geometry" />
        </mxCell>
        <mxCell id="8Z6I1ifUidSe4iL7Zp6g-72" style="edgeStyle=orthogonalEdgeStyle;curved=1;orthogonalLoop=1;jettySize=auto;html=1;exitX=1;exitY=0.5;exitDx=0;exitDy=0;" edge="1" parent="1" source="8Z6I1ifUidSe4iL7Zp6g-50" target="8Z6I1ifUidSe4iL7Zp6g-71">
          <mxGeometry relative="1" as="geometry" />
        </mxCell>
        <mxCell id="8Z6I1ifUidSe4iL7Zp6g-50" value="Ada&lt;br&gt;Data Pasien?" style="rhombus;whiteSpace=wrap;html=1;" vertex="1" parent="1">
          <mxGeometry x="600" y="730" width="120" height="120" as="geometry" />
        </mxCell>
        <mxCell id="8Z6I1ifUidSe4iL7Zp6g-66" style="edgeStyle=orthogonalEdgeStyle;curved=1;orthogonalLoop=1;jettySize=auto;html=1;entryX=0.5;entryY=1;entryDx=0;entryDy=0;" edge="1" parent="1" source="8Z6I1ifUidSe4iL7Zp6g-61" target="8Z6I1ifUidSe4iL7Zp6g-64">
          <mxGeometry relative="1" as="geometry" />
        </mxCell>
        <mxCell id="8Z6I1ifUidSe4iL7Zp6g-61" value="Hubungkan data pasien" style="rounded=1;whiteSpace=wrap;html=1;" vertex="1" parent="1">
          <mxGeometry x="600" y="890" width="120" height="60" as="geometry" />
        </mxCell>
        <mxCell id="8Z6I1ifUidSe4iL7Zp6g-68" style="edgeStyle=orthogonalEdgeStyle;curved=1;orthogonalLoop=1;jettySize=auto;html=1;exitX=0.5;exitY=0;exitDx=0;exitDy=0;entryX=0;entryY=0.5;entryDx=0;entryDy=0;" edge="1" parent="1" source="8Z6I1ifUidSe4iL7Zp6g-64" target="8Z6I1ifUidSe4iL7Zp6g-14">
          <mxGeometry relative="1" as="geometry" />
        </mxCell>
        <mxCell id="8Z6I1ifUidSe4iL7Zp6g-64" value="Response 200" style="rounded=1;whiteSpace=wrap;html=1;" vertex="1" parent="1">
          <mxGeometry x="130" y="530" width="120" height="60" as="geometry" />
        </mxCell>
        <mxCell id="8Z6I1ifUidSe4iL7Zp6g-74" style="edgeStyle=orthogonalEdgeStyle;curved=1;orthogonalLoop=1;jettySize=auto;html=1;exitX=0.5;exitY=0;exitDx=0;exitDy=0;entryX=1;entryY=0.5;entryDx=0;entryDy=0;" edge="1" parent="1" source="8Z6I1ifUidSe4iL7Zp6g-69" target="8Z6I1ifUidSe4iL7Zp6g-14">
          <mxGeometry relative="1" as="geometry" />
        </mxCell>
        <mxCell id="8Z6I1ifUidSe4iL7Zp6g-69" value="Response 403" style="rounded=1;whiteSpace=wrap;html=1;" vertex="1" parent="1">
          <mxGeometry x="840" y="530" width="120" height="60" as="geometry" />
        </mxCell>
        <mxCell id="8Z6I1ifUidSe4iL7Zp6g-73" style="edgeStyle=orthogonalEdgeStyle;curved=1;orthogonalLoop=1;jettySize=auto;html=1;exitX=0.5;exitY=0;exitDx=0;exitDy=0;" edge="1" parent="1" source="8Z6I1ifUidSe4iL7Zp6g-71" target="8Z6I1ifUidSe4iL7Zp6g-69">
          <mxGeometry relative="1" as="geometry" />
        </mxCell>
        <mxCell id="8Z6I1ifUidSe4iL7Zp6g-77" style="edgeStyle=orthogonalEdgeStyle;curved=1;orthogonalLoop=1;jettySize=auto;html=1;exitX=1;exitY=0.5;exitDx=0;exitDy=0;entryX=0;entryY=0.5;entryDx=0;entryDy=0;" edge="1" parent="1" source="8Z6I1ifUidSe4iL7Zp6g-71" target="8Z6I1ifUidSe4iL7Zp6g-75">
          <mxGeometry relative="1" as="geometry" />
        </mxCell>
        <mxCell id="8Z6I1ifUidSe4iL7Zp6g-71" value="Data pasien&lt;br&gt;jelas?" style="rhombus;whiteSpace=wrap;html=1;" vertex="1" parent="1">
          <mxGeometry x="840" y="730" width="120" height="120" as="geometry" />
        </mxCell>
        <mxCell id="8Z6I1ifUidSe4iL7Zp6g-76" style="edgeStyle=orthogonalEdgeStyle;curved=1;orthogonalLoop=1;jettySize=auto;html=1;exitX=0.5;exitY=1;exitDx=0;exitDy=0;entryX=1;entryY=0.5;entryDx=0;entryDy=0;" edge="1" parent="1" source="8Z6I1ifUidSe4iL7Zp6g-75" target="8Z6I1ifUidSe4iL7Zp6g-61">
          <mxGeometry relative="1" as="geometry" />
        </mxCell>
        <mxCell id="8Z6I1ifUidSe4iL7Zp6g-75" value="Buat Pasien Baru" style="rounded=1;whiteSpace=wrap;html=1;" vertex="1" parent="1">
          <mxGeometry x="1050" y="760" width="120" height="60" as="geometry" />
        </mxCell>
      </root>
    </mxGraphModel>
  </diagram>
</mxfile>
